<svg width="428" height="574" viewBox="0 0 428 574" fill="none" xmlns="http://www.w3.org/2000/svg">
  <g filter="url(#filter0_ddddii_3319_2267)">
    <path
      d="M214 357C164.971 357 142.936 269.442 134.375 219.76C131.347 202.172 147.042 186.359 167.563 186.359H260.437C280.958 186.359 296.653 202.172 293.625 219.76C285.073 269.434 263.039 357 214 357Z"
      fill="#58D33F" />
    <path
      d="M167.562 186.859H260.438C280.418 186.86 295.613 201.989 293.258 218.869L293.132 219.675C288.858 244.499 281.22 278.76 268.539 306.802C262.198 320.823 254.61 333.26 245.575 342.186C236.547 351.105 226.095 356.5 214 356.5C201.907 356.5 191.457 351.105 182.43 342.187C173.396 333.262 165.808 320.826 159.468 306.805C147.183 279.64 139.629 246.638 135.279 222.029L134.868 219.675C131.906 202.473 147.265 186.86 167.562 186.859Z"
      stroke="#58D33F" />
  </g>
  <path
    d="M154.151 257.876C153.781 250.406 153.471 242.085 155.908 235.538C157.12 232.281 159.007 229.482 161.893 227.448C164.601 225.54 168.224 224.28 173.073 223.975L174.059 223.927H253.943C264.966 223.927 273.834 232.099 273.834 242.078V242.09L273.835 242.102C274.205 249.572 274.515 257.892 272.078 264.44C270.865 267.697 268.979 270.496 266.093 272.53C263.204 274.565 259.274 275.863 253.926 276.05H174.042C163.019 276.05 154.151 267.878 154.151 257.9V257.876Z"
    fill="url(#paint0_linear_3319_2267)" stroke="#58D33F" />
  <path
    d="M173.945 223.721H253.745C261.817 223.722 267.204 227.193 270.37 232.192C272.763 235.972 273.901 240.652 273.934 245.414C271.589 237.293 263.402 231.341 253.745 231.341H173.945C164.287 231.341 156.099 237.293 153.754 245.414C153.788 240.652 154.926 235.972 157.32 232.192C160.485 227.193 165.872 223.721 173.945 223.721Z"
    fill="#58D33F" stroke="#58D33F" />
  <g style="mix-blend-mode:multiply">
    <path
      d="M212.792 180.031C230.106 180.032 247.4 181.55 260.254 184.576C266.686 186.09 271.97 187.974 275.586 190.211C279.216 192.456 281.039 194.97 280.864 197.727L280.862 197.759L280.864 197.791C281.037 200.55 279.212 203.065 275.581 205.31C271.962 207.548 266.677 209.432 260.244 210.946C247.387 213.973 230.091 215.491 212.777 215.491C195.463 215.491 178.168 213.973 165.314 210.946C158.882 209.432 153.597 207.548 149.981 205.31C146.352 203.065 144.529 200.55 144.705 197.791L144.707 197.76L144.705 197.728C144.532 194.969 146.356 192.454 149.988 190.209C153.606 187.972 158.892 186.088 165.325 184.574C178.182 181.548 195.477 180.031 212.792 180.031Z"
      fill="url(#paint1_radial_3319_2267)" style="mix-blend-mode:multiply" />
    <path
      d="M212.792 180.031C230.106 180.032 247.4 181.55 260.254 184.576C266.686 186.09 271.97 187.974 275.586 190.211C279.216 192.456 281.039 194.97 280.864 197.727L280.862 197.759L280.864 197.791C281.037 200.55 279.212 203.065 275.581 205.31C271.962 207.548 266.677 209.432 260.244 210.946C247.387 213.973 230.091 215.491 212.777 215.491C195.463 215.491 178.168 213.973 165.314 210.946C158.882 209.432 153.597 207.548 149.981 205.31C146.352 203.065 144.529 200.55 144.705 197.791L144.707 197.76L144.705 197.728C144.532 194.969 146.356 192.454 149.988 190.209C153.606 187.972 158.892 186.088 165.325 184.574C178.182 181.548 195.477 180.031 212.792 180.031Z"
      stroke="#58D33F" />
  </g>
  <path
    d="M214.012 77.5C231.682 77.5006 249.323 81.7286 262.538 90.1504C275.532 98.4318 284.232 110.753 284.536 127.127L284.543 127.91C284.502 144.676 275.728 157.259 262.526 165.671C249.309 174.092 231.667 178.319 213.998 178.318C196.327 178.318 178.687 174.09 165.472 165.668C152.272 157.255 143.502 144.674 143.465 127.91C143.506 111.143 152.28 98.5601 165.483 90.1475C178.7 81.7259 196.342 77.4994 214.012 77.5Z"
    fill="url(#paint2_linear_3319_2267)" stroke="#58D33F" />
  <path
    d="M178.764 99.2263H249.235C261.839 99.2263 271.975 108.554 271.982 119.977C269.652 150.826 241.929 166.351 214.014 166.36C186.098 166.369 158.361 150.858 156.016 119.967C156.03 108.549 166.164 99.2263 178.764 99.2263Z"
    fill="black" stroke="#58D33F" />
  <path
    d="M181.559 106.764H246.45C255.438 106.764 262.645 113.417 262.645 121.534C262.645 129.652 255.438 136.305 246.45 136.305H181.559C172.571 136.305 165.364 129.651 165.364 121.534C165.364 113.417 172.571 106.764 181.559 106.764Z"
    fill="#58D33F" stroke="#58D33F" />
  <path
    d="M204.72 144.213H223.289C224.249 144.213 224.944 144.908 224.944 145.683C224.944 148.426 222.508 150.718 219.398 150.723C218.105 150.633 216.384 150.719 214.589 150.777C212.762 150.836 210.831 150.867 209.071 150.677C207.302 150.487 205.772 150.079 204.703 149.307C203.733 148.607 203.107 147.582 203.065 146.015V145.683C203.065 144.908 203.76 144.213 204.72 144.213Z"
    fill="#58D33F" stroke="#58D33F" />
  <path
    d="M183.977 118.173H196.041C196.869 118.159 197.378 118.395 197.712 118.729C198.06 119.079 198.278 119.595 198.399 120.243C198.521 120.889 198.538 121.615 198.524 122.337C198.515 122.858 198.488 123.403 198.481 123.879L198.483 124.314C198.483 125.489 197.43 126.514 196.032 126.514H183.968C183.139 126.527 182.631 126.291 182.297 125.956C181.949 125.607 181.731 125.091 181.609 124.442C181.488 123.797 181.471 123.07 181.484 122.349C181.497 121.66 181.539 120.929 181.525 120.372C181.525 119.197 182.579 118.173 183.977 118.173Z"
    fill="#010101" stroke="#58D33F" />
  <path
    d="M231.977 118.173H244.031C244.86 118.159 245.368 118.395 245.702 118.729C246.051 119.079 246.268 119.595 246.39 120.243C246.511 120.889 246.528 121.615 246.515 122.337C246.505 122.858 246.478 123.403 246.472 123.879L246.474 124.314C246.474 125.489 245.42 126.514 244.023 126.514H231.968C231.14 126.527 230.631 126.291 230.297 125.956C229.949 125.607 229.731 125.091 229.61 124.442C229.488 123.797 229.471 123.07 229.485 122.349C229.497 121.66 229.539 120.929 229.526 120.372C229.526 119.197 230.579 118.173 231.977 118.173Z"
    fill="#010101" stroke="#58D33F" />
  <defs>
    <filter id="filter0_ddddii_3319_2267" x="-52" y="0.359497" width="563" height="573.64"
      filterUnits="userSpaceOnUse" color-interpolation-filters="sRGB">
      <feFlood flood-opacity="0" result="BackgroundImageFix" />
      <feColorMatrix in="SourceAlpha" type="matrix"
        values="0 0 0 0 0 0 0 0 0 0 0 0 0 0 0 0 0 0 127 0" result="hardAlpha" />
      <feOffset dx="62" dy="62" />
      <feGaussianBlur stdDeviation="77.5" />
      <feColorMatrix type="matrix"
        values="0 0 0 0 0.647059 0 0 0 0 0.898039 0 0 0 0 0.596078 0 0 0 0.9 0" />
      <feBlend mode="normal" in2="BackgroundImageFix" result="effect1_dropShadow_3319_2267" />
      <feColorMatrix in="SourceAlpha" type="matrix"
        values="0 0 0 0 0 0 0 0 0 0 0 0 0 0 0 0 0 0 127 0" result="hardAlpha" />
      <feOffset dx="-62" dy="-62" />
      <feGaussianBlur stdDeviation="62" />
      <feColorMatrix type="matrix"
        values="0 0 0 0 0.647059 0 0 0 0 0.898039 0 0 0 0 0.596078 0 0 0 0.9 0" />
      <feBlend mode="normal" in2="effect1_dropShadow_3319_2267"
        result="effect2_dropShadow_3319_2267" />
      <feColorMatrix in="SourceAlpha" type="matrix"
        values="0 0 0 0 0 0 0 0 0 0 0 0 0 0 0 0 0 0 127 0" result="hardAlpha" />
      <feOffset dx="62" dy="-62" />
      <feGaussianBlur stdDeviation="62" />
      <feColorMatrix type="matrix"
        values="0 0 0 0 0.647059 0 0 0 0 0.898039 0 0 0 0 0.596078 0 0 0 0.2 0" />
      <feBlend mode="normal" in2="effect2_dropShadow_3319_2267"
        result="effect3_dropShadow_3319_2267" />
      <feColorMatrix in="SourceAlpha" type="matrix"
        values="0 0 0 0 0 0 0 0 0 0 0 0 0 0 0 0 0 0 127 0" result="hardAlpha" />
      <feOffset dx="-62" dy="62" />
      <feGaussianBlur stdDeviation="62" />
      <feColorMatrix type="matrix"
        values="0 0 0 0 0.647059 0 0 0 0 0.898039 0 0 0 0 0.596078 0 0 0 0.2 0" />
      <feBlend mode="normal" in2="effect3_dropShadow_3319_2267"
        result="effect4_dropShadow_3319_2267" />
      <feBlend mode="normal" in="SourceGraphic" in2="effect4_dropShadow_3319_2267" result="shape" />
      <feColorMatrix in="SourceAlpha" type="matrix"
        values="0 0 0 0 0 0 0 0 0 0 0 0 0 0 0 0 0 0 127 0" result="hardAlpha" />
      <feOffset dx="-2" dy="-2" />
      <feGaussianBlur stdDeviation="1.5" />
      <feComposite in2="hardAlpha" operator="arithmetic" k2="-1" k3="1" />
      <feColorMatrix type="matrix"
        values="0 0 0 0 0.647059 0 0 0 0 0.898039 0 0 0 0 0.596078 0 0 0 0.5 0" />
      <feBlend mode="normal" in2="shape" result="effect5_innerShadow_3319_2267" />
      <feColorMatrix in="SourceAlpha" type="matrix"
        values="0 0 0 0 0 0 0 0 0 0 0 0 0 0 0 0 0 0 127 0" result="hardAlpha" />
      <feOffset dx="2" dy="2" />
      <feGaussianBlur stdDeviation="1.5" />
      <feComposite in2="hardAlpha" operator="arithmetic" k2="-1" k3="1" />
      <feColorMatrix type="matrix"
        values="0 0 0 0 0.647059 0 0 0 0 0.898039 0 0 0 0 0.596078 0 0 0 0.3 0" />
      <feBlend mode="normal" in2="effect5_innerShadow_3319_2267"
        result="effect6_innerShadow_3319_2267" />
    </filter>
    <linearGradient id="paint0_linear_3319_2267" x1="213.993" y1="223.427" x2="213.993" y2="276.551"
      gradientUnits="userSpaceOnUse">
      <stop />
      <stop offset="1" stop-opacity="0" />
    </linearGradient>
    <radialGradient id="paint1_radial_3319_2267" cx="0" cy="0" r="1" gradientUnits="userSpaceOnUse"
      gradientTransform="translate(212.219 197.208) scale(63.9362 17.9125)">
      <stop stop-color="#748FD3" />
      <stop offset="0.36" stop-color="#A3B5E1" />
      <stop offset="1" stop-color="white" />
    </radialGradient>
    <linearGradient id="paint2_linear_3319_2267" x1="214.005" y1="77" x2="214.005" y2="178.818"
      gradientUnits="userSpaceOnUse">
      <stop stop-color="#58D33F" />
      <stop offset="1" stop-color="#58D33F" stop-opacity="0" />
    </linearGradient>
  </defs>
</svg>
