<svg width="428" height="574" viewBox="0 0 428 574" fill="none" xmlns="http://www.w3.org/2000/svg">
<g filter="url(#filter0_ddddii_3375_5700)">
<path d="M214 357C164.971 357 142.936 269.442 134.375 219.759C131.347 202.172 147.042 186.359 167.563 186.359H260.437C280.958 186.359 296.653 202.172 293.625 219.759C285.073 269.433 263.039 357 214 357Z" fill="#58D33F"/>
<path d="M134.868 219.675C131.906 202.473 147.265 186.859 167.563 186.859H260.437C280.735 186.859 296.094 202.473 293.132 219.675C288.859 244.499 281.221 278.759 268.54 306.801C262.199 320.823 254.61 333.26 245.576 342.186C236.547 351.105 226.095 356.5 214 356.5C201.907 356.5 191.457 351.106 182.43 342.187C173.396 333.262 165.808 320.826 159.468 306.805C146.787 278.763 139.146 244.503 134.868 219.675ZM134.868 219.675L134.375 219.759L134.868 219.675Z" stroke="#58D33F"/>
</g>
<path d="M154.152 257.9V257.888L154.151 257.876C153.781 250.405 153.47 242.085 155.908 235.538C157.12 232.28 159.007 229.482 161.893 227.448C164.78 225.414 168.707 224.116 174.051 223.927H253.943C264.967 223.927 273.834 232.099 273.834 242.077V242.09L273.835 242.102C274.205 249.572 274.515 257.892 272.078 264.44C270.865 267.697 268.979 270.495 266.092 272.529C263.206 274.564 259.278 275.862 253.935 276.05H174.042C163.019 276.05 154.152 267.879 154.152 257.9Z" fill="url(#paint0_linear_3375_5700)" stroke="#58D33F"/>
<path d="M173.945 223.721H253.744C261.817 223.721 267.204 227.193 270.369 232.192C272.763 235.972 273.901 240.651 273.935 245.412C271.59 237.292 263.401 231.34 253.744 231.34H173.945C164.288 231.34 156.099 237.292 153.754 245.412C153.788 240.651 154.927 235.972 157.32 232.192C160.485 227.193 165.872 223.721 173.945 223.721Z" fill="#58D33F" stroke="#58D33F"/>
<g style="mix-blend-mode:multiply">
<path d="M280.864 197.728L280.862 197.759L280.864 197.791C281.037 200.55 279.212 203.065 275.58 205.31C271.962 207.548 266.676 209.432 260.243 210.946C247.386 213.973 230.091 215.491 212.777 215.491C195.463 215.491 178.169 213.973 165.314 210.946C158.882 209.432 153.598 207.548 149.981 205.311C146.352 203.065 144.529 200.55 144.705 197.791L144.707 197.76L144.705 197.728C144.532 194.969 146.356 192.454 149.988 190.209C153.606 187.972 158.892 186.088 165.325 184.574C178.182 181.548 195.477 180.031 212.791 180.031C230.106 180.032 247.4 181.55 260.254 184.576C266.686 186.09 271.97 187.974 275.587 190.211C279.216 192.456 281.039 194.97 280.864 197.728Z" fill="url(#paint1_radial_3375_5700)" style="mix-blend-mode:multiply"/>
<path d="M280.864 197.728L280.862 197.759L280.864 197.791C281.037 200.55 279.212 203.065 275.58 205.31C271.962 207.548 266.676 209.432 260.243 210.946C247.386 213.973 230.091 215.491 212.777 215.491C195.463 215.491 178.169 213.973 165.314 210.946C158.882 209.432 153.598 207.548 149.981 205.311C146.352 203.065 144.529 200.55 144.705 197.791L144.707 197.76L144.705 197.728C144.532 194.969 146.356 192.454 149.988 190.209C153.606 187.972 158.892 186.088 165.325 184.574C178.182 181.548 195.477 180.031 212.791 180.031C230.106 180.032 247.4 181.55 260.254 184.576C266.686 186.09 271.97 187.974 275.587 190.211C279.216 192.456 281.039 194.97 280.864 197.728Z" stroke="#58D33F"/>
</g>
<path d="M284.544 127.909C284.503 144.675 275.729 157.258 262.526 165.671C249.309 174.092 231.667 178.319 213.997 178.318C196.327 178.318 178.687 174.09 165.472 165.668C152.272 157.255 143.502 144.673 143.465 127.909C143.506 111.143 152.28 98.5602 165.483 90.1477C178.7 81.7261 196.342 77.4994 214.012 77.5C231.682 77.5006 249.322 81.7283 262.537 90.1502C275.738 98.5629 284.507 111.145 284.544 127.909Z" fill="url(#paint2_linear_3375_5700)" stroke="#58D33F"/>
<path d="M214.014 166.36C186.098 166.369 158.362 150.859 156.016 119.971C156.027 108.551 166.162 99.2261 178.764 99.2261H249.236C261.838 99.2261 271.972 108.551 271.983 119.971C269.657 150.823 241.93 166.351 214.014 166.36Z" fill="black" stroke="#58D33F"/>
<path d="M246.45 136.305H181.56C172.571 136.305 165.364 129.651 165.364 121.534C165.364 113.417 172.571 106.764 181.56 106.764H246.45C255.438 106.764 262.645 113.417 262.645 121.534C262.645 129.651 255.438 136.305 246.45 136.305Z" fill="#58D33F" stroke="#58D33F"/>
<path d="M203.065 145.695L203.065 145.695V145.684C203.065 144.909 203.759 144.212 204.72 144.212H223.289C224.25 144.212 224.944 144.909 224.944 145.684C224.944 148.425 222.512 150.716 219.404 150.724C218.317 150.647 216.924 150.696 215.44 150.748C215.159 150.757 214.875 150.767 214.589 150.776C212.762 150.835 210.831 150.867 209.071 150.677C207.302 150.486 205.772 150.078 204.703 149.307C203.669 148.56 203.025 147.444 203.065 145.695Z" fill="#58D33F" stroke="#58D33F"/>
<path d="M183.976 126.513V126.513L183.968 126.513C183.14 126.527 182.631 126.291 182.297 125.956C181.949 125.607 181.731 125.091 181.609 124.443C181.488 123.797 181.471 123.071 181.484 122.349C181.489 122.1 181.497 121.845 181.506 121.595C181.52 121.151 181.535 120.722 181.526 120.366C181.529 119.194 182.581 118.173 183.976 118.173H196.032V118.173L196.041 118.172C196.869 118.159 197.378 118.395 197.712 118.73C198.06 119.079 198.278 119.595 198.4 120.243C198.521 120.889 198.538 121.615 198.525 122.337C198.52 122.586 198.511 122.841 198.503 123.091C198.488 123.534 198.474 123.963 198.483 124.32C198.479 125.492 197.427 126.513 196.032 126.513H183.976Z" fill="#010101" stroke="#58D33F"/>
<path d="M231.977 126.513V126.513L231.968 126.513C231.14 126.527 230.631 126.291 230.297 125.956C229.949 125.607 229.731 125.091 229.609 124.443C229.488 123.797 229.471 123.071 229.485 122.349C229.489 122.1 229.498 121.845 229.506 121.595C229.521 121.151 229.535 120.722 229.526 120.366C229.53 119.194 230.582 118.173 231.977 118.173H244.023V118.173L244.031 118.172C244.86 118.159 245.368 118.395 245.702 118.73C246.05 119.079 246.268 119.595 246.39 120.243C246.511 120.889 246.528 121.615 246.515 122.337C246.511 122.586 246.502 122.841 246.494 123.091C246.479 123.535 246.465 123.963 246.474 124.32C246.47 125.492 245.418 126.513 244.023 126.513H231.977Z" fill="#010101" stroke="#58D33F"/>
<defs>
<filter id="filter0_ddddii_3375_5700" x="-52" y="0.359375" width="563" height="573.641" filterUnits="userSpaceOnUse" color-interpolation-filters="sRGB">
<feFlood flood-opacity="0" result="BackgroundImageFix"/>
<feColorMatrix in="SourceAlpha" type="matrix" values="0 0 0 0 0 0 0 0 0 0 0 0 0 0 0 0 0 0 127 0" result="hardAlpha"/>
<feOffset dx="62" dy="62"/>
<feGaussianBlur stdDeviation="77.5"/>
<feColorMatrix type="matrix" values="0 0 0 0 0.647059 0 0 0 0 0.898039 0 0 0 0 0.596078 0 0 0 0.9 0"/>
<feBlend mode="normal" in2="BackgroundImageFix" result="effect1_dropShadow_3375_5700"/>
<feColorMatrix in="SourceAlpha" type="matrix" values="0 0 0 0 0 0 0 0 0 0 0 0 0 0 0 0 0 0 127 0" result="hardAlpha"/>
<feOffset dx="-62" dy="-62"/>
<feGaussianBlur stdDeviation="62"/>
<feColorMatrix type="matrix" values="0 0 0 0 0.647059 0 0 0 0 0.898039 0 0 0 0 0.596078 0 0 0 0.9 0"/>
<feBlend mode="normal" in2="effect1_dropShadow_3375_5700" result="effect2_dropShadow_3375_5700"/>
<feColorMatrix in="SourceAlpha" type="matrix" values="0 0 0 0 0 0 0 0 0 0 0 0 0 0 0 0 0 0 127 0" result="hardAlpha"/>
<feOffset dx="62" dy="-62"/>
<feGaussianBlur stdDeviation="62"/>
<feColorMatrix type="matrix" values="0 0 0 0 0.647059 0 0 0 0 0.898039 0 0 0 0 0.596078 0 0 0 0.2 0"/>
<feBlend mode="normal" in2="effect2_dropShadow_3375_5700" result="effect3_dropShadow_3375_5700"/>
<feColorMatrix in="SourceAlpha" type="matrix" values="0 0 0 0 0 0 0 0 0 0 0 0 0 0 0 0 0 0 127 0" result="hardAlpha"/>
<feOffset dx="-62" dy="62"/>
<feGaussianBlur stdDeviation="62"/>
<feColorMatrix type="matrix" values="0 0 0 0 0.647059 0 0 0 0 0.898039 0 0 0 0 0.596078 0 0 0 0.2 0"/>
<feBlend mode="normal" in2="effect3_dropShadow_3375_5700" result="effect4_dropShadow_3375_5700"/>
<feBlend mode="normal" in="SourceGraphic" in2="effect4_dropShadow_3375_5700" result="shape"/>
<feColorMatrix in="SourceAlpha" type="matrix" values="0 0 0 0 0 0 0 0 0 0 0 0 0 0 0 0 0 0 127 0" result="hardAlpha"/>
<feOffset dx="-2" dy="-2"/>
<feGaussianBlur stdDeviation="1.5"/>
<feComposite in2="hardAlpha" operator="arithmetic" k2="-1" k3="1"/>
<feColorMatrix type="matrix" values="0 0 0 0 0.647059 0 0 0 0 0.898039 0 0 0 0 0.596078 0 0 0 0.5 0"/>
<feBlend mode="normal" in2="shape" result="effect5_innerShadow_3375_5700"/>
<feColorMatrix in="SourceAlpha" type="matrix" values="0 0 0 0 0 0 0 0 0 0 0 0 0 0 0 0 0 0 127 0" result="hardAlpha"/>
<feOffset dx="2" dy="2"/>
<feGaussianBlur stdDeviation="1.5"/>
<feComposite in2="hardAlpha" operator="arithmetic" k2="-1" k3="1"/>
<feColorMatrix type="matrix" values="0 0 0 0 0.647059 0 0 0 0 0.898039 0 0 0 0 0.596078 0 0 0 0.3 0"/>
<feBlend mode="normal" in2="effect5_innerShadow_3375_5700" result="effect6_innerShadow_3375_5700"/>
</filter>
<linearGradient id="paint0_linear_3375_5700" x1="213.993" y1="223.427" x2="213.993" y2="276.55" gradientUnits="userSpaceOnUse">
<stop/>
<stop offset="1" stop-opacity="0"/>
</linearGradient>
<radialGradient id="paint1_radial_3375_5700" cx="0" cy="0" r="1" gradientUnits="userSpaceOnUse" gradientTransform="translate(212.219 197.209) scale(63.9362 17.9125)">
<stop stop-color="#748FD3"/>
<stop offset="0.36" stop-color="#A3B5E1"/>
<stop offset="1" stop-color="white"/>
</radialGradient>
<linearGradient id="paint2_linear_3375_5700" x1="214.005" y1="77" x2="214.005" y2="178.818" gradientUnits="userSpaceOnUse">
<stop stop-color="#58D33F"/>
<stop offset="1" stop-color="#58D33F" stop-opacity="0"/>
</linearGradient>
</defs>
</svg>
