<svg width="428" height="666" viewBox="0 0 428 666" fill="none" xmlns="http://www.w3.org/2000/svg">
<g id="Group 1" opacity="0.3">
<path id="Vector" d="M124.294 604.141C113.538 606.767 103.091 609.078 93.0089 611.055C37.6555 621.918 -4.95506 622.636 -33.6395 613.188C-62.986 603.525 -76.9185 583.314 -75.0547 553.112C-69.3912 461.425 -54.8788 401.913 -45.276 362.535C-40.9539 344.811 -37.5397 330.81 -36.5581 320.222C-34.9273 302.601 -13.8716 274.595 18.3877 247.13C53.1052 217.576 92.9701 195.079 127.766 185.408C175.755 172.07 224.66 146.586 257.235 127.555C295.181 105.386 333.425 78.7441 359.535 56.2858C376.389 41.7871 396.471 36.5312 417.601 41.0849C454.188 48.9718 489.189 85.1859 508.945 135.591C518.307 159.482 527.99 184.189 535.664 208.437C544.151 235.247 549.187 258.6 551.064 279.828C553.301 305.175 551.218 328.242 544.695 350.342C537.41 375.016 524.792 397.957 506.12 420.476C474.231 458.935 371.975 516.879 257.457 561.384C210.608 579.589 165.204 594.149 124.293 604.138L124.294 604.141ZM388.293 42.3819C378.348 44.8101 368.946 49.7423 360.388 57.1051C334.223 79.6116 295.912 106.301 257.907 128.504C225.266 147.57 176.253 173.112 128.126 186.487C93.5088 196.11 53.8167 218.511 19.2336 247.955C-12.8103 275.235 -33.7164 302.964 -35.3226 320.32C-36.3109 330.987 -39.7336 345.017 -44.0651 362.782C-53.6604 402.127 -68.1558 461.581 -73.8157 553.178C-75.6459 582.825 -61.9864 602.661 -33.2123 612.137C-4.75173 621.508 37.6281 620.777 92.7518 609.962C141.095 600.477 197.881 583.324 256.971 560.359C371.313 515.924 473.36 458.128 505.132 419.809C523.706 397.408 536.255 374.596 543.499 350.06C549.986 328.085 552.06 305.144 549.831 279.927C545.654 232.616 526.398 183.488 507.779 135.977C488.166 85.9244 453.501 49.9846 417.313 42.1865C407.321 40.0316 397.569 40.121 388.294 42.3855L388.293 42.3819Z" fill="white"/>
<path id="Vector_2" d="M125.628 584.211C117.121 586.289 108.835 588.146 100.797 589.772C50.1079 600.026 11.0978 600.943 -15.1582 592.498C-41.6984 583.96 -54.4222 565.932 -52.9774 538.914C-49.2753 457.281 -36.9747 400.702 -28.8376 363.266C-25.0171 345.691 -22.0014 331.81 -21.0731 321.102C-19.5663 303.794 -0.274063 277.061 29.2757 251.332C60.9171 223.781 97.9155 202.541 130.784 193.054C174.991 180.55 220.108 157.334 250.17 140.065C285.487 119.774 319.918 96.3657 344.634 75.8344C360.234 62.8807 378.743 58.3322 398.167 62.6802C431.882 70.2256 464.073 103.545 482.175 149.642C499.299 193.117 517.01 238.073 520.865 282.397C522.898 305.743 520.972 327.008 514.977 347.406C508.294 370.159 496.735 391.323 479.655 412.106C450.457 447.873 356.629 501.843 251.489 543.354C207.125 560.868 164.14 574.807 125.626 584.215L125.628 584.211ZM370.348 63.7757C361.489 65.9397 353.099 70.238 345.423 76.611C320.659 97.1813 286.169 120.635 250.795 140.955C220.671 158.259 175.461 181.521 131.136 194.062C98.433 203.5 61.6005 224.649 30.0855 252.092C0.733257 277.649 -18.4211 304.123 -19.9071 321.182C-20.8383 331.952 -23.8636 345.859 -27.6876 363.466C-35.8202 400.873 -48.1066 457.399 -51.805 538.957C-53.2216 565.46 -40.7593 583.137 -14.7583 591.501C11.285 599.877 50.0814 598.946 100.553 588.739C144.905 579.769 196.941 563.736 251.035 542.379C356.007 500.937 449.637 447.108 478.728 411.472C495.725 390.798 507.215 369.752 513.861 347.132C519.821 326.851 521.736 305.705 519.712 282.477C515.867 238.29 498.185 193.401 481.083 149.99C463.109 104.222 431.233 71.1598 397.888 63.6981C388.411 61.5775 379.146 61.6226 370.347 63.772L370.348 63.7757Z" fill="white"/>
<path id="Vector_3" d="M126.996 564.335C120.696 565.874 114.539 567.273 108.529 568.532C62.5036 578.173 27.089 579.282 3.27066 571.836C-20.462 564.419 -31.9719 548.568 -30.9368 524.725C-29.1563 452.619 -19.384 400.988 -12.2476 363.293C-9.00843 346.186 -6.45342 332.673 -5.59492 321.99C-4.18849 304.733 12.9182 279.895 40.1653 255.547C68.747 230.004 102.881 210.025 133.812 200.729C207.083 179.581 291.131 126.174 329.752 95.4372C344.1 84.0301 361.046 80.1893 378.766 84.333C409.605 91.5418 438.975 121.975 455.417 163.755C470.292 201.3 487.146 243.856 490.664 285.036C492.484 306.383 490.717 325.845 485.253 344.539C479.164 365.371 468.669 384.755 453.171 403.803C439.865 420.395 412.424 441.03 373.819 463.469C336.737 485.024 291.155 507.008 245.48 525.373C203.627 542.2 163.075 555.521 127 564.334L126.996 564.335ZM352.388 85.22C344.623 87.1168 337.25 90.7829 330.467 96.1778C291.78 126.969 207.569 180.475 134.144 201.668C103.371 210.918 69.3913 230.812 40.924 256.249C13.8635 280.432 -3.1239 305.035 -4.51328 322.059C-5.37497 332.789 -7.93663 346.323 -11.1803 363.459C-18.3082 401.125 -28.0712 452.714 -29.8538 524.755C-30.8671 548.12 -19.6033 563.643 3.62555 570.904C27.2504 578.289 62.4604 577.168 108.284 567.568C148.645 559.112 195.938 544.21 245.035 524.47C290.664 506.123 336.19 484.165 373.227 462.636C411.715 440.265 439.055 419.721 452.285 403.22C467.705 384.273 478.142 364.996 484.191 344.291C489.623 325.705 491.383 306.349 489.571 285.117C486.066 244.07 469.235 201.578 454.382 164.093C438.06 122.617 408.978 92.4202 378.483 85.2901C369.498 83.1885 360.716 83.1856 352.384 85.2209L352.388 85.22Z" fill="white"/>
<path id="Vector_4" d="M128.465 544.484C124.317 545.497 120.247 546.441 116.242 547.314C74.8799 556.34 43.0668 557.647 21.682 551.2C0.761705 544.891 -9.52734 531.212 -8.90194 510.544C-9.05049 447.3 -1.2144 398.077 4.50879 362.139C6.97487 346.651 9.10428 333.277 9.8765 322.883C11.1629 305.93 26.5549 282.334 51.0441 259.768C76.5843 236.235 107.853 217.512 136.832 208.405C165.817 199.84 200.125 184.891 236.06 165.171C264.903 149.343 293.625 131.07 314.867 115.04C327.961 105.173 343.352 102.041 359.376 105.99C387.33 112.876 413.873 140.421 428.649 177.878C444.316 217.153 457.521 252.527 460.452 287.685C462.065 307.031 460.449 324.696 455.515 341.687C450.024 360.593 440.59 378.202 426.674 395.513C414.634 410.851 389.863 429.871 355.04 450.518C321.724 470.269 280.674 490.479 239.447 507.424C200.135 523.58 162.053 536.291 128.46 544.496L128.465 544.484ZM334.393 106.645C327.73 108.273 321.389 111.315 315.511 115.744C294.234 131.802 265.465 150.105 236.582 165.954C200.58 185.71 166.2 200.692 137.152 209.273C108.326 218.335 77.1993 236.973 51.7677 260.409C27.4432 282.822 12.1588 306.203 10.8908 322.941C10.1162 333.371 7.98305 346.761 5.51325 362.266C-0.205404 398.176 -8.03618 447.359 -7.88549 510.551C-8.49834 530.782 1.55705 544.162 22.0069 550.326C43.2133 556.72 74.8398 555.404 116.013 546.42C152.391 538.476 194.933 524.703 239.038 506.574C280.22 489.647 321.222 469.465 354.493 449.737C389.212 429.154 413.886 410.215 425.858 394.964C439.702 377.744 449.081 360.238 454.541 341.444C459.445 324.554 461.051 306.988 459.448 287.748C456.526 252.708 443.344 217.398 427.704 178.183C413.034 141.002 386.753 113.677 359.112 106.869C350.609 104.774 342.281 104.714 334.4 106.639L334.393 106.645Z" fill="white"/>
<path id="Vector_5" d="M130.068 524.678C128.004 525.182 125.963 525.665 123.939 526.129C87.2409 534.542 59.0244 536.045 40.0721 530.593C21.966 525.384 12.8997 513.869 13.1321 496.36C10.9562 441.149 17.0051 393.677 21.4221 359.016C23.1734 345.273 24.6881 333.402 25.3442 323.777C26.531 306.864 39.8651 285.073 61.9232 263.989C84.4457 242.462 112.846 225.001 139.849 216.086C193.747 199.706 260.635 162.386 299.978 134.645C311.831 126.305 325.673 123.886 340.007 127.647C365.062 134.221 388.773 158.875 401.884 191.993C415.344 225.455 427.638 258.156 430.242 290.323C431.646 307.665 430.186 323.531 425.782 338.818C420.889 355.802 412.514 371.628 400.185 387.207C389.41 401.289 367.304 418.705 336.264 437.563C306.715 455.514 270.189 473.951 233.415 489.48C196.685 504.985 161.113 517.094 130.069 524.681L130.068 524.678ZM316.349 128.048C310.808 129.401 305.505 131.829 300.555 135.31C261.151 163.094 194.149 200.476 140.161 216.882C113.302 225.75 85.0325 243.133 62.6077 264.57C40.6965 285.514 27.4593 307.111 26.2872 323.826C25.6284 333.471 24.1129 345.353 22.3608 359.108C17.9444 393.742 11.9018 441.178 14.0741 496.347C13.8488 513.459 22.6929 524.699 40.3639 529.781C59.148 535.185 87.192 533.678 123.717 525.302C156.107 517.867 193.909 505.221 233.024 488.703C269.752 473.193 306.235 454.782 335.747 436.852C366.693 418.052 388.711 400.715 399.424 386.714C411.692 371.22 420.017 355.484 424.88 338.604C429.26 323.409 430.709 307.634 429.315 290.386C426.721 258.325 414.445 225.686 401.011 192.283C388 159.417 364.532 134.964 339.755 128.464C331.705 126.352 323.813 126.232 316.355 128.054L316.349 128.048Z" fill="white"/>
<path id="Vector_6" d="M131.852 504.924L131.625 504.98C99.592 512.785 74.972 514.483 58.4534 510.031C43.1582 505.911 35.3253 496.537 35.1736 482.174C30.6925 434.052 35.1604 387.024 38.4233 352.687C39.445 341.933 40.3294 332.648 40.8262 324.663C41.8945 308.032 53.5565 287.451 72.8126 268.203C92.3465 248.678 117.886 232.474 142.88 223.756C166.104 216.454 192.702 205.188 221.954 190.272C243.956 179.05 266.971 165.917 285.103 154.238C295.722 147.421 308.023 145.715 320.69 149.306C342.837 155.582 363.695 177.346 375.126 206.105C386.489 234.054 397.768 263.784 400.04 292.962C401.233 308.304 399.93 322.364 396.054 335.955C391.758 351.014 384.445 365.065 373.697 378.904C354.844 404.339 296.035 441.581 227.367 471.569C193.283 486.456 160.262 497.984 131.852 504.924ZM298.221 149.416C293.818 150.492 289.583 152.317 285.595 154.877C267.441 166.57 244.394 179.723 222.368 190.954C193.076 205.891 166.427 217.174 143.168 224.488C118.311 233.162 92.8931 249.285 73.4459 268.727C54.319 287.847 42.7422 308.251 41.6818 324.706C41.1832 332.699 40.3009 341.992 39.2763 352.75C36.014 387.06 31.5514 434.047 36.0298 482.131C36.1805 496.142 43.8066 505.264 58.6981 509.277C75.0626 513.686 99.5242 511.987 131.401 504.22L131.629 504.164C159.987 497.237 192.953 485.726 226.991 470.859C295.533 440.924 354.199 403.79 372.982 378.454C383.675 364.687 390.945 350.72 395.216 335.753C399.066 322.25 400.362 308.269 399.178 293.013C396.915 263.939 385.654 234.27 374.313 206.369C362.97 177.834 342.323 156.251 320.429 150.048C312.795 147.884 305.291 147.685 298.228 149.411L298.221 149.416Z" fill="white"/>
<path id="Vector_7" d="M133.764 485.299C109.075 491.33 89.931 492.761 76.8073 489.549C64.3287 486.494 57.735 479.253 57.2069 468.017C49.7436 426.079 52.9595 377.05 55.3073 341.246C55.6742 335.627 56.0224 330.323 56.2936 325.557C57.264 308.942 66.9949 290.074 83.6914 272.425C100.53 254.632 122.62 240.073 145.896 231.433C162.174 226.092 206.842 209.803 270.218 173.841C279.617 168.536 290.404 167.545 301.417 170.985C320.624 176.984 338.61 195.851 348.356 220.221C357.732 242.971 367.896 269.434 369.826 295.604C371.869 323.263 364.467 347.793 347.201 370.603C338.946 382.197 322.165 396.416 298.685 411.721C276.321 426.296 249.563 440.816 221.304 453.71C192.12 467.023 163.76 477.464 139.288 483.899C137.417 484.391 135.573 484.857 133.76 485.3L133.764 485.299ZM279.984 170.73C276.75 171.52 273.619 172.762 270.635 174.445C260.495 180.198 239.818 191.62 215.262 203.454C189.48 215.882 166.241 225.517 146.181 232.096C123.033 240.69 101.049 255.176 84.2937 272.886C67.7113 290.415 58.047 309.131 57.0859 325.589C56.8147 330.354 56.4676 335.662 56.1018 341.285C53.7545 377.061 50.541 426.055 57.9961 467.921L57.9998 467.963C58.5021 478.864 64.9007 485.893 77.0189 488.858C90.7697 492.222 112.23 490.272 139.077 483.21C163.504 476.785 191.815 466.365 220.957 453.069C249.178 440.193 275.903 425.692 298.236 411.141C321.637 395.89 338.344 381.735 346.555 370.21C363.723 347.533 371.077 323.146 369.05 295.658C367.127 269.583 356.983 243.177 347.627 220.477C337.958 196.297 320.159 177.598 301.168 171.666C293.892 169.392 286.713 169.094 279.994 170.736L279.984 170.73Z" fill="white"/>
<path id="Vector_8" d="M136.489 465.715C118.959 469.997 104.798 471.204 95.1477 469.195C85.4562 467.177 80.1078 462.016 79.2464 453.851C67.1722 417.506 70.3927 353.699 71.7643 326.447C73.5458 292.398 105.273 256.482 148.916 239.11C184.092 226.934 224.223 208.066 248.201 196.796C250.746 195.6 253.138 194.477 255.345 193.442C263.548 189.627 272.857 189.373 282.254 192.7C298.481 198.446 313.551 214.4 321.591 234.339C330.066 254.522 338.113 276.232 339.618 298.249C341.223 321.742 335.041 342.694 320.71 362.305C306.948 382.67 265.551 411.564 215.246 435.911C191.058 447.616 167.444 456.952 146.957 462.91C143.35 463.958 139.856 464.897 136.486 465.72L136.489 465.715ZM261.553 191.952C259.537 192.445 257.574 193.134 255.669 194.018C253.46 195.05 251.073 196.172 248.529 197.371C224.54 208.648 184.387 227.529 149.187 239.71C105.796 256.983 74.2489 292.665 72.4795 326.478C71.1044 353.704 67.8871 417.463 79.9414 453.697L79.9595 453.758C80.7749 461.636 85.9377 466.617 95.3093 468.566C106.692 470.935 124.48 468.765 146.746 462.295C167.194 456.35 190.771 447.031 214.917 435.344C265.112 411.047 306.403 382.244 320.113 361.962C351.935 318.416 337.964 275.156 320.929 234.575C312.954 214.798 298.037 198.988 281.996 193.31C274.979 190.825 268.023 190.38 261.559 191.959L261.553 191.952Z" fill="white"/>
<path id="Vector_9" d="M139.652 446.47C128.936 449.088 120.004 450.029 113.529 449.083C106.556 448.06 102.44 444.905 101.296 439.706C94.9113 430.571 90.5491 413.401 88.3236 388.672C86.7032 370.653 86.3065 348.3 87.2396 327.339C88.7916 293.703 112.978 263.592 151.941 246.789C165.813 241.636 180.175 236.007 194.065 230.563C212.029 223.522 228.997 216.876 240.476 213.041C250.149 209.848 261.207 211.986 271.61 219.057C281.473 225.76 289.932 236.474 294.829 248.453C306.591 275.735 308.8 290.806 309.412 300.889C310.585 320.207 305.614 337.582 294.222 354.002C282.939 371.931 250.388 396.532 209.268 418.193C183.003 432.031 158.553 441.857 139.653 446.474L139.652 446.47ZM242.795 212.982C242.089 213.155 241.39 213.357 240.696 213.584C229.232 217.412 212.276 224.055 194.319 231.094C180.426 236.539 166.059 242.165 152.199 247.315C113.472 264.018 89.4181 293.942 87.8784 327.358C86.9479 348.298 87.3412 370.625 88.9592 388.621C91.1777 413.298 95.5237 430.398 101.868 439.438L101.898 439.485L101.913 439.535C102.982 444.505 106.921 447.525 113.63 448.511C131.386 451.118 167.911 439.308 208.945 417.691C249.972 396.079 282.437 371.561 293.672 353.706C304.999 337.384 309.935 320.122 308.772 300.925C307.613 281.813 300.393 262.957 294.229 248.666C289.376 236.78 280.992 226.161 271.226 219.523C261.748 213.083 251.739 210.802 242.796 212.986L242.795 212.982Z" fill="white"/>
<path id="Vector_10" d="M143.719 427.873C139.288 428.956 135.439 429.504 132.316 429.464C127.749 429.401 124.744 428.104 123.387 425.601C113.714 421.957 108.645 402.808 106.095 387.359C103.219 369.934 101.955 347.831 102.709 328.225C103.381 311.353 107.836 297.244 116.332 285.087C125.009 272.673 137.643 262.658 154.96 254.462C181.62 243.537 209.352 234.975 225.621 232.645C233.551 231.541 242.379 234.232 250.477 240.214C258.051 245.813 264.461 253.96 268.06 262.569C278.198 285.148 287.322 314.998 267.729 345.697C259.003 361.074 235.086 381.538 203.757 400.42C180.861 414.221 158.886 424.168 143.715 427.874L143.719 427.873ZM211.831 235.94C195.925 239.825 175.263 246.702 155.21 254.92C137.998 263.064 125.437 273.023 116.814 285.358C108.372 297.435 103.943 311.46 103.277 328.237C101.861 364.88 107.264 419.175 123.702 425.159L123.803 425.197L123.851 425.286C125.083 427.656 127.936 428.887 132.327 428.946C146.041 429.132 173.957 417.765 203.45 399.987C234.702 381.151 258.552 360.761 267.239 345.444C286.715 314.929 277.629 285.221 267.539 262.75L267.537 262.743C263.972 254.215 257.621 246.142 250.119 240.6C242.147 234.707 233.477 232.06 225.707 233.14C221.711 233.712 217.023 234.664 211.829 235.933L211.831 235.94Z" fill="white"/>
<path id="Vector_11" d="M150.215 411.044C148.303 411.511 146.749 411.654 145.62 411.438C142.553 412.637 139.619 412.395 136.901 410.733C128.944 405.868 124.392 390.004 121.973 377.548C119.094 362.729 117.683 344.621 118.19 329.108C118.775 311.559 121.561 299.285 127.227 289.305C133.267 278.663 143.046 270.027 157.995 262.13C175.306 253.931 196.029 250.055 210.793 252.254C224.043 254.279 236.712 266.259 241.303 276.673C251.587 298 251.567 318.427 241.249 337.38C237.585 344.999 230.925 353.636 221.468 363.046C213.277 371.192 203.195 379.673 192.299 387.569C175.245 399.932 158.989 408.893 150.217 411.036L150.215 411.044ZM145.57 410.977L145.647 410.993C146.732 411.22 148.241 411.084 150.106 410.629C169.413 405.912 226.608 366.699 240.799 337.203C251.056 318.362 251.071 298.064 240.845 276.859L240.842 276.852C236.301 266.55 223.785 254.698 210.701 252.699C196.036 250.515 175.432 254.373 158.218 262.525C143.362 270.373 133.645 278.947 127.647 289.512C122.019 299.429 119.249 311.645 118.665 329.124C118.159 344.61 119.573 362.682 122.444 377.475C124.847 389.847 129.351 405.594 137.162 410.371C139.755 411.955 142.557 412.17 145.488 411.005L145.561 410.975L145.57 410.977Z" fill="white"/>
<path id="Vector_12" d="M159.858 402.012C157.945 402.479 156.081 402.384 154.276 401.716C149.75 400.049 143.317 393.877 138.356 373.96C135.032 360.608 133.275 344.178 133.655 330.006C134.103 313.259 134.627 302.444 138.103 293.546C141.698 284.339 148.333 277.464 161.011 269.823C167.997 265.611 175.44 264.394 183.128 266.204C199.751 270.123 212.309 286.862 214.527 290.794C218.67 298.142 219.8 307.16 217.882 317.602C216.23 326.59 212.329 336.651 206.286 347.514C195.364 367.146 179.214 386.027 167.743 397.15C165.043 399.768 162.406 401.393 159.859 402.015L159.858 402.012ZM169.787 266.547C166.873 267.259 164.023 268.451 161.239 270.132C148.645 277.725 142.054 284.543 138.49 293.668C135.039 302.518 134.514 313.302 134.068 330.014C133.376 355.852 140.227 396.132 154.431 401.371C158.464 402.86 162.839 401.353 167.437 396.895C178.888 385.793 195.01 366.946 205.912 347.346C211.935 336.518 215.824 326.491 217.466 317.541C219.369 307.18 218.254 298.24 214.154 290.967C211.954 287.065 199.492 270.45 183.017 266.568C178.506 265.507 174.08 265.502 169.78 266.552L169.787 266.547Z" fill="white"/>
</g>
</svg>
