<svg width="16" height="16" viewBox="0 0 16 16" fill="none" xmlns="http://www.w3.org/2000/svg">
  <path
    d="M7.66153 1.85938H5.16886C3.11886 1.85938 1.83353 3.31071 1.83353 5.36537V10.908C1.83353 12.9627 3.11286 14.414 5.16886 14.414H11.0515C13.1082 14.414 14.3875 12.9627 14.3875 10.908V8.22271"
    stroke="currentColor" stroke-width="1.33333" stroke-linecap="round" stroke-linejoin="round" />
  <path fill-rule="evenodd" clip-rule="evenodd"
    d="M5.8852 7.2805L10.8672 2.2985C11.4879 1.6785 12.4939 1.6785 13.1145 2.2985L13.9259 3.10983C14.5465 3.7305 14.5465 4.73716 13.9259 5.35716L8.91987 10.3632C8.64853 10.6345 8.28053 10.7872 7.89653 10.7872H5.3992L5.46187 8.26716C5.4712 7.8965 5.62253 7.54316 5.8852 7.2805Z"
    stroke="currentColor" stroke-width="1.33333" stroke-linecap="round" stroke-linejoin="round" />
  <path d="M10.1101 3.06836L13.1541 6.11236" stroke="currentColor" stroke-width="1.33333"
    stroke-linecap="round" stroke-linejoin="round" />
</svg>