<svg width="25" height="24" viewBox="0 0 25 24" fill="none" xmlns="http://www.w3.org/2000/svg">
  <path fill-rule="evenodd" clip-rule="evenodd"
    d="M16.8028 2.75H8.15076C5.13876 2.75 3.24976 4.884 3.24976 7.904V16.05C3.24976 19.07 5.13076 21.204 8.15076 21.204H16.7978C19.8228 21.204 21.7028 19.07 21.7028 16.05V7.904C21.7068 4.884 19.8258 2.75 16.8028 2.75Z"
    stroke="currentColor" stroke-width="1.5" stroke-linecap="round" stroke-linejoin="round" />
  <path fill-rule="evenodd" clip-rule="evenodd"
    d="M11.2032 8.78496C11.2032 9.80496 10.3772 10.631 9.35723 10.631C8.33823 10.631 7.51123 9.80496 7.51123 8.78496C7.51123 7.76496 8.33823 6.93896 9.35723 6.93896C10.3762 6.93996 11.2022 7.76596 11.2032 8.78496Z"
    stroke="currentColor" stroke-width="1.5" stroke-linecap="round" stroke-linejoin="round" />
  <path
    d="M21.707 14.951C20.784 14.001 19.009 12.082 17.079 12.082C15.148 12.082 14.035 16.315 12.178 16.315C10.321 16.315 8.634 14.401 7.146 15.628C5.658 16.854 4.25 19.361 4.25 19.361"
    stroke="currentColor" stroke-width="1.5" stroke-linecap="round" stroke-linejoin="round" />
</svg>
