<svg width="40" height="40" viewBox="0 0 40 40" fill="none" xmlns="http://www.w3.org/2000/svg">
  <g clip-path="url(#clip0_3375_4582)">
    <path
      d="M20 40C31.0457 40 40 31.0457 40 20C40 8.9543 31.0457 0 20 0C8.9543 0 0 8.9543 0 20C0 31.0457 8.9543 40 20 40Z"
      fill="#67D6A8" />
    <path
      d="M39.6831 23.5651L30.5882 14.4702L8.76476 23.8397L15.0826 30.1576L9.41179 32.699L16.3873 39.6745C17.5793 39.8916 18.7884 40.0005 20 40C29.8288 40 38.0017 32.9099 39.6831 23.5651Z"
      fill="#49B88A" />
    <path
      d="M24.2793 10.8591L23.9922 10.8709L22.041 5.92285H9.4118V32.6988H30.5882V14.47L24.2793 10.8591Z"
      fill="white" />
    <path
      d="M30.5882 14.47L24.2793 10.8591L23.9922 10.8709L22.041 5.92285H19.9722V32.6988H30.5882V14.47Z"
      fill="#E9EDF5" />
    <path d="M22.041 14.47H30.5882L22.041 5.92285V14.47Z" fill="#BEC3D2" />
    <path d="M8.76476 15.2769H23.335V23.8401H8.76476V15.2769Z" fill="#FF6C52" />
    <path d="M19.9722 15.2769H23.3349V23.8401H19.9722V15.2769Z" fill="#FF432E" />
    <path
      d="M9.84484 21.8764V17.3823H12.0952C13.1059 17.3823 13.6584 18.0628 13.6584 18.8781C13.6584 19.6866 13.1059 20.3672 12.0952 20.3672H11.0037V21.8764H9.84484ZM12.4793 18.8781C12.4793 18.5682 12.2502 18.3929 11.9403 18.3929H11.0037V19.3565H11.9403C12.2502 19.3565 12.4793 19.1813 12.4793 18.8781ZM14.1773 21.8764V17.3823H16.0638C17.4787 17.3823 18.4961 18.2313 18.4961 19.626C18.4961 21.0208 17.4787 21.8764 16.0705 21.8764H14.1773ZM17.3103 19.626C17.3103 18.932 16.8926 18.393 16.0705 18.393H15.3362V20.8658H16.0638C16.8522 20.8658 17.3103 20.293 17.3103 19.626ZM19.0757 21.8764V17.3823H22.3705V18.3929H20.2346V19.0937H22.3233V20.1044H20.2346V21.8764H19.0757Z"
      fill="white" />
    <path
      d="M22.3705 18.393V17.3823H19.9722V21.8764H20.2346V20.1044H22.3234V19.0937H20.2346V18.393H22.3705Z"
      fill="#E9EDF5" />
    <path d="M32.612 28.0959V20.7656H26.7841V28.0959H23.8185L29.698 34.9427L35.5776 28.0959H32.612Z"
      fill="#FF6C52" />
    <path d="M32.612 28.0959V20.7656H29.698V34.9427L35.5776 28.0959H32.612Z" fill="#FF432E" />
  </g>
  <defs>
    <clipPath id="clip0_3375_4582">
      <rect width="40" height="40" fill="white" />
    </clipPath>
  </defs>
</svg>
